<mxfile host="65bd71144e">
    <diagram id="kolrVw-c0OGa7ffwcMu9" name="Page-1">
        <mxGraphModel dx="1311" dy="1814" grid="1" gridSize="10" guides="1" tooltips="1" connect="1" arrows="1" fold="1" page="1" pageScale="1" pageWidth="850" pageHeight="1100" math="0" shadow="0">
            <root>
                <mxCell id="0"/>
                <mxCell id="1" parent="0"/>
                <mxCell id="106" value="" style="rounded=0;whiteSpace=wrap;html=1;" parent="1" vertex="1">
                    <mxGeometry x="490" y="260" width="730" height="40" as="geometry"/>
                </mxCell>
                <mxCell id="99" value="" style="rounded=0;whiteSpace=wrap;html=1;" parent="1" vertex="1">
                    <mxGeometry x="950" y="75" width="270" height="125" as="geometry"/>
                </mxCell>
                <mxCell id="100" value="&lt;font style=&quot;font-size: 24px;&quot;&gt;Kubernetes&lt;/font&gt;" style="text;html=1;align=center;verticalAlign=middle;resizable=0;points=[];autosize=1;strokeColor=none;fillColor=none;" parent="1" vertex="1">
                    <mxGeometry x="950" y="77.75" width="150" height="40" as="geometry"/>
                </mxCell>
                <mxCell id="97" value="" style="rounded=0;whiteSpace=wrap;html=1;" parent="1" vertex="1">
                    <mxGeometry x="950" y="-80" width="270" height="130" as="geometry"/>
                </mxCell>
                <mxCell id="96" value="" style="rounded=0;whiteSpace=wrap;html=1;" parent="1" vertex="1">
                    <mxGeometry x="490" y="-80" width="450" height="280" as="geometry"/>
                </mxCell>
                <mxCell id="88" style="edgeStyle=none;html=1;entryX=0;entryY=0.5;entryDx=0;entryDy=0;" parent="1" source="4" target="18" edge="1">
                    <mxGeometry relative="1" as="geometry"/>
                </mxCell>
                <mxCell id="89" value="pedido gerado" style="edgeLabel;html=1;align=center;verticalAlign=middle;resizable=0;points=[];" parent="88" vertex="1" connectable="0">
                    <mxGeometry x="-0.2932" y="-2" relative="1" as="geometry">
                        <mxPoint x="23" as="offset"/>
                    </mxGeometry>
                </mxCell>
                <mxCell id="4" value="http://localhost:5000" style="aspect=fixed;perimeter=ellipsePerimeter;html=1;align=center;shadow=0;dashed=0;spacingTop=3;image;image=img/lib/active_directory/laptop_client.svg;" parent="1" vertex="1">
                    <mxGeometry x="190" y="40.75" width="45" height="50" as="geometry"/>
                </mxCell>
                <mxCell id="15" value="orders_created" style="aspect=fixed;perimeter=ellipsePerimeter;html=1;align=center;shadow=0;dashed=0;spacingTop=3;image;image=img/lib/active_directory/tunnel.svg;" parent="1" vertex="1">
                    <mxGeometry x="715" width="160" height="32" as="geometry"/>
                </mxCell>
                <mxCell id="41" value="" style="edgeStyle=none;html=1;" parent="1" source="18" target="40" edge="1">
                    <mxGeometry relative="1" as="geometry"/>
                </mxCell>
                <mxCell id="92" style="edgeStyle=none;html=1;entryX=0.5;entryY=0;entryDx=0;entryDy=0;" parent="1" source="18" target="91" edge="1">
                    <mxGeometry relative="1" as="geometry"/>
                </mxCell>
                <mxCell id="18" value="Orchestrator" style="rounded=1;whiteSpace=wrap;html=1;" parent="1" vertex="1">
                    <mxGeometry x="350" y="-60" width="100" height="260" as="geometry"/>
                </mxCell>
                <mxCell id="49" value="" style="edgeStyle=none;html=1;" parent="1" source="28" target="46" edge="1">
                    <mxGeometry relative="1" as="geometry"/>
                </mxCell>
                <mxCell id="148" style="edgeStyle=none;html=1;fontSize=9;exitX=0;exitY=0.5;exitDx=0;exitDy=0;entryX=1;entryY=0.5;entryDx=0;entryDy=0;" parent="1" source="28" target="15" edge="1">
                    <mxGeometry relative="1" as="geometry"/>
                </mxCell>
                <mxCell id="155" style="edgeStyle=none;html=1;fontSize=9;exitX=0;exitY=0.5;exitDx=0;exitDy=0;entryX=0.994;entryY=0.412;entryDx=0;entryDy=0;entryPerimeter=0;" parent="1" source="28" target="114" edge="1">
                    <mxGeometry relative="1" as="geometry">
                        <Array as="points">
                            <mxPoint x="920" y="16"/>
                            <mxPoint x="920" y="114"/>
                        </Array>
                    </mxGeometry>
                </mxCell>
                <mxCell id="28" value="Kitchen Service" style="rounded=1;whiteSpace=wrap;html=1;" parent="1" vertex="1">
                    <mxGeometry x="960" y="-14" width="110" height="60" as="geometry"/>
                </mxCell>
                <mxCell id="50" value="" style="edgeStyle=none;html=1;" parent="1" source="30" target="47" edge="1">
                    <mxGeometry relative="1" as="geometry"/>
                </mxCell>
                <mxCell id="154" style="edgeStyle=none;html=1;entryX=1.004;entryY=0.662;entryDx=0;entryDy=0;fontSize=9;exitX=0;exitY=0.5;exitDx=0;exitDy=0;entryPerimeter=0;" parent="1" source="30" target="114" edge="1">
                    <mxGeometry relative="1" as="geometry">
                        <Array as="points">
                            <mxPoint x="920" y="160"/>
                            <mxPoint x="920" y="122"/>
                        </Array>
                    </mxGeometry>
                </mxCell>
                <mxCell id="30" value="Delivery Service" style="rounded=1;whiteSpace=wrap;html=1;" parent="1" vertex="1">
                    <mxGeometry x="960" y="130" width="120" height="60" as="geometry"/>
                </mxCell>
                <mxCell id="146" value="" style="edgeStyle=none;html=1;fontSize=9;exitX=1;exitY=0.5;exitDx=0;exitDy=0;" parent="1" source="40" target="114" edge="1">
                    <mxGeometry relative="1" as="geometry">
                        <Array as="points">
                            <mxPoint x="670" y="70"/>
                            <mxPoint x="670" y="120"/>
                        </Array>
                    </mxGeometry>
                </mxCell>
                <mxCell id="147" style="edgeStyle=none;html=1;entryX=0;entryY=0.5;entryDx=0;entryDy=0;fontSize=9;exitX=1;exitY=0.5;exitDx=0;exitDy=0;" parent="1" source="40" target="15" edge="1">
                    <mxGeometry relative="1" as="geometry">
                        <Array as="points">
                            <mxPoint x="670" y="71"/>
                            <mxPoint x="670" y="16"/>
                        </Array>
                    </mxGeometry>
                </mxCell>
                <mxCell id="40" value="Exchange&lt;br&gt;(direct)" style="rounded=1;whiteSpace=wrap;html=1;" parent="1" vertex="1">
                    <mxGeometry x="510" y="40.75" width="120" height="60" as="geometry"/>
                </mxCell>
                <mxCell id="46" value="mongodb" style="aspect=fixed;perimeter=ellipsePerimeter;html=1;align=center;shadow=0;dashed=0;spacingTop=3;image;image=img/lib/active_directory/databases.svg;" parent="1" vertex="1">
                    <mxGeometry x="1170" y="-6.75" width="29.59" height="29" as="geometry"/>
                </mxCell>
                <mxCell id="47" value="mongodb" style="aspect=fixed;perimeter=ellipsePerimeter;html=1;align=center;shadow=0;dashed=0;spacingTop=3;image;image=img/lib/active_directory/databases.svg;" parent="1" vertex="1">
                    <mxGeometry x="1168.98" y="145" width="30.61" height="30" as="geometry"/>
                </mxCell>
                <mxCell id="91" value="mongodb" style="aspect=fixed;perimeter=ellipsePerimeter;html=1;align=center;shadow=0;dashed=0;spacingTop=3;image;image=img/lib/active_directory/databases.svg;" parent="1" vertex="1">
                    <mxGeometry x="384.69" y="270" width="30.62" height="30" as="geometry"/>
                </mxCell>
                <mxCell id="95" value="&lt;font style=&quot;font-size: 24px;&quot;&gt;RabbitMQ&lt;/font&gt;" style="text;html=1;align=center;verticalAlign=middle;resizable=0;points=[];autosize=1;strokeColor=none;fillColor=none;" parent="1" vertex="1">
                    <mxGeometry x="500" y="-40" width="130" height="40" as="geometry"/>
                </mxCell>
                <mxCell id="98" value="&lt;font style=&quot;font-size: 24px;&quot;&gt;Kubernetes&lt;/font&gt;" style="text;html=1;align=center;verticalAlign=middle;resizable=0;points=[];autosize=1;strokeColor=none;fillColor=none;" parent="1" vertex="1">
                    <mxGeometry x="950" y="-80" width="150" height="40" as="geometry"/>
                </mxCell>
                <mxCell id="103" value="" style="rounded=0;whiteSpace=wrap;html=1;" parent="1" vertex="1">
                    <mxGeometry x="490" y="210" width="730" height="40" as="geometry"/>
                </mxCell>
                <mxCell id="104" value="&lt;font style=&quot;font-size: 24px;&quot;&gt;Prometheus&lt;/font&gt;" style="text;html=1;align=center;verticalAlign=middle;resizable=0;points=[];autosize=1;strokeColor=none;fillColor=none;" parent="1" vertex="1">
                    <mxGeometry x="490" y="210" width="150" height="40" as="geometry"/>
                </mxCell>
                <mxCell id="105" value="&lt;font style=&quot;font-size: 24px;&quot;&gt;Grafana&lt;/font&gt;" style="text;html=1;align=center;verticalAlign=middle;resizable=0;points=[];autosize=1;strokeColor=none;fillColor=none;" parent="1" vertex="1">
                    <mxGeometry x="490" y="260" width="110" height="40" as="geometry"/>
                </mxCell>
                <mxCell id="114" value="orders_delivered" style="aspect=fixed;perimeter=ellipsePerimeter;html=1;align=center;shadow=0;dashed=0;spacingTop=3;image;image=img/lib/active_directory/tunnel.svg;" parent="1" vertex="1">
                    <mxGeometry x="712.5" y="100.75" width="160" height="32" as="geometry"/>
                </mxCell>
                <mxCell id="179" value="" style="edgeStyle=none;html=1;fontSize=9;fontColor=#00FF00;" parent="1" source="120" edge="1">
                    <mxGeometry relative="1" as="geometry">
                        <mxPoint x="175.40999999999997" y="-135" as="targetPoint"/>
                    </mxGeometry>
                </mxCell>
                <mxCell id="120" value="" style="ellipse;whiteSpace=wrap;html=1;aspect=fixed;fillColor=#60a917;strokeColor=#2D7600;fontColor=#ffffff;" parent="1" vertex="1">
                    <mxGeometry x="50" y="-160" width="50" height="50" as="geometry"/>
                </mxCell>
                <mxCell id="121" value="Preparando pedido&lt;br&gt;20h20" style="text;html=1;align=center;verticalAlign=middle;resizable=0;points=[];autosize=1;strokeColor=none;fillColor=none;" parent="1" vertex="1">
                    <mxGeometry x="10" y="-115" width="130" height="40" as="geometry"/>
                </mxCell>
                <mxCell id="180" style="edgeStyle=none;html=1;fontSize=9;fontColor=#00FF00;" parent="1" source="122" edge="1">
                    <mxGeometry relative="1" as="geometry">
                        <mxPoint x="305.40999999999997" y="-135" as="targetPoint"/>
                    </mxGeometry>
                </mxCell>
                <mxCell id="122" value="" style="ellipse;whiteSpace=wrap;html=1;aspect=fixed;fillColor=#647687;fontColor=#ffffff;strokeColor=#314354;" parent="1" vertex="1">
                    <mxGeometry x="180" y="-160" width="50" height="50" as="geometry"/>
                </mxCell>
                <mxCell id="123" value="Pedido saiu para entrega&lt;br&gt;20h45" style="text;html=1;align=center;verticalAlign=middle;resizable=0;points=[];autosize=1;strokeColor=none;fillColor=none;" parent="1" vertex="1">
                    <mxGeometry x="125" y="-115" width="160" height="40" as="geometry"/>
                </mxCell>
                <mxCell id="124" value="" style="ellipse;whiteSpace=wrap;html=1;aspect=fixed;fillColor=#647687;fontColor=#ffffff;strokeColor=#314354;" parent="1" vertex="1">
                    <mxGeometry x="314.9999999999999" y="-160" width="50" height="50" as="geometry"/>
                </mxCell>
                <mxCell id="125" value="Pedido recebido&lt;br&gt;21h00" style="text;html=1;align=center;verticalAlign=middle;resizable=0;points=[];autosize=1;strokeColor=none;fillColor=none;" parent="1" vertex="1">
                    <mxGeometry x="284.9999999999999" y="-115" width="110" height="40" as="geometry"/>
                </mxCell>
                <mxCell id="127" value="ORDER CREATED" style="whiteSpace=wrap;html=1;aspect=fixed;fillColor=#f0a30a;fontColor=#000000;strokeColor=#BD7000;" parent="1" vertex="1">
                    <mxGeometry x="635" y="330" width="80" height="80" as="geometry"/>
                </mxCell>
                <mxCell id="129" value="ORDER DELIVERED" style="whiteSpace=wrap;html=1;aspect=fixed;fillColor=#f0a30a;fontColor=#000000;strokeColor=#BD7000;" parent="1" vertex="1">
                    <mxGeometry x="895" y="330" width="80" height="80" as="geometry"/>
                </mxCell>
                <mxCell id="130" value="ORDER FINISH" style="whiteSpace=wrap;html=1;aspect=fixed;fillColor=#f0a30a;fontColor=#000000;strokeColor=#BD7000;" parent="1" vertex="1">
                    <mxGeometry x="1140" y="330" width="80" height="80" as="geometry"/>
                </mxCell>
                <mxCell id="131" value="CREATE ORDER" style="whiteSpace=wrap;html=1;aspect=fixed;fillColor=#1ba1e2;fontColor=#ffffff;strokeColor=#006EAF;" parent="1" vertex="1">
                    <mxGeometry x="540" y="330" width="80" height="80" as="geometry"/>
                </mxCell>
                <mxCell id="133" value="PREPARE&lt;br&gt;ORDER" style="whiteSpace=wrap;html=1;aspect=fixed;fillColor=#1ba1e2;fontColor=#ffffff;strokeColor=#006EAF;" parent="1" vertex="1">
                    <mxGeometry x="800" y="330" width="80" height="80" as="geometry"/>
                </mxCell>
                <mxCell id="134" value="FINISH&lt;br&gt;ORDER" style="whiteSpace=wrap;html=1;aspect=fixed;fillColor=#1ba1e2;fontColor=#ffffff;strokeColor=#006EAF;" parent="1" vertex="1">
                    <mxGeometry x="1045" y="330" width="80" height="80" as="geometry"/>
                </mxCell>
                <mxCell id="136" value="&lt;font style=&quot;font-size: 9px;&quot;&gt;CUSTOMER&lt;/font&gt;" style="rounded=0;whiteSpace=wrap;html=1;fillColor=#e3c800;fontColor=#000000;strokeColor=#B09500;" parent="1" vertex="1">
                    <mxGeometry x="505" y="385" width="65" height="40" as="geometry"/>
                </mxCell>
                <mxCell id="138" value="&lt;font style=&quot;font-size: 9px;&quot;&gt;KITCHEN&lt;/font&gt;" style="rounded=0;whiteSpace=wrap;html=1;fillColor=#e3c800;fontColor=#000000;strokeColor=#B09500;" parent="1" vertex="1">
                    <mxGeometry x="760" y="390" width="65" height="40" as="geometry"/>
                </mxCell>
                <mxCell id="140" value="&lt;font style=&quot;font-size: 9px;&quot;&gt;CUSTOMER&lt;/font&gt;" style="rounded=0;whiteSpace=wrap;html=1;fillColor=#e3c800;fontColor=#000000;strokeColor=#B09500;" parent="1" vertex="1">
                    <mxGeometry x="1005" y="390" width="65" height="40" as="geometry"/>
                </mxCell>
                <mxCell id="157" value="3" style="text;html=1;align=center;verticalAlign=middle;resizable=0;points=[];autosize=1;strokeColor=none;fillColor=none;fontSize=9;fontColor=#FFFF66;" parent="1" vertex="1">
                    <mxGeometry x="675" y="-6.75" width="30" height="20" as="geometry"/>
                </mxCell>
                <mxCell id="158" value="4" style="text;html=1;align=center;verticalAlign=middle;resizable=0;points=[];autosize=1;strokeColor=none;fillColor=none;fontSize=9;fontColor=#FFFF66;" parent="1" vertex="1">
                    <mxGeometry x="890" y="-6.75" width="30" height="20" as="geometry"/>
                </mxCell>
                <mxCell id="159" value="6" style="text;html=1;align=center;verticalAlign=middle;resizable=0;points=[];autosize=1;strokeColor=none;fillColor=none;fontSize=9;fontColor=#FFFF66;" parent="1" vertex="1">
                    <mxGeometry x="880" y="87.75" width="30" height="20" as="geometry"/>
                </mxCell>
                <mxCell id="160" value="9" style="text;html=1;align=center;verticalAlign=middle;resizable=0;points=[];autosize=1;strokeColor=none;fillColor=none;fontSize=9;fontColor=#FFFF66;" parent="1" vertex="1">
                    <mxGeometry x="880" y="127.5" width="30" height="20" as="geometry"/>
                </mxCell>
                <mxCell id="161" value="5" style="text;html=1;align=center;verticalAlign=middle;resizable=0;points=[];autosize=1;strokeColor=none;fillColor=none;fontSize=9;fontColor=#FFFF66;" parent="1" vertex="1">
                    <mxGeometry x="1110" y="-15.75" width="30" height="20" as="geometry"/>
                </mxCell>
                <mxCell id="162" value="1" style="text;html=1;align=center;verticalAlign=middle;resizable=0;points=[];autosize=1;strokeColor=none;fillColor=none;fontSize=9;fontColor=#FFFF66;" parent="1" vertex="1">
                    <mxGeometry x="310" y="40.75" width="30" height="20" as="geometry"/>
                </mxCell>
                <mxCell id="163" value="2" style="text;html=1;align=center;verticalAlign=middle;resizable=0;points=[];autosize=1;strokeColor=none;fillColor=none;fontSize=9;fontColor=#FFFF66;" parent="1" vertex="1">
                    <mxGeometry x="370" y="200" width="30" height="20" as="geometry"/>
                </mxCell>
                <mxCell id="164" value="7" style="text;html=1;align=center;verticalAlign=middle;resizable=0;points=[];autosize=1;strokeColor=none;fillColor=none;fontSize=9;fontColor=#FFFF66;" parent="1" vertex="1">
                    <mxGeometry x="630" y="75" width="30" height="20" as="geometry"/>
                </mxCell>
                <mxCell id="165" value="8" style="text;html=1;align=center;verticalAlign=middle;resizable=0;points=[];autosize=1;strokeColor=none;fillColor=none;fontSize=9;fontColor=#FFFF66;" parent="1" vertex="1">
                    <mxGeometry x="395" y="220" width="30" height="20" as="geometry"/>
                </mxCell>
                <mxCell id="166" value="10" style="text;html=1;align=center;verticalAlign=middle;resizable=0;points=[];autosize=1;strokeColor=none;fillColor=none;fontSize=9;fontColor=#FFFF66;" parent="1" vertex="1">
                    <mxGeometry x="1100" y="133.75" width="30" height="20" as="geometry"/>
                </mxCell>
                <mxCell id="167" value="" style="verticalLabelPosition=bottom;shadow=0;dashed=0;align=center;html=1;verticalAlign=top;strokeWidth=1;shape=mxgraph.mockup.containers.userMale;strokeColor=#666666;strokeColor2=#008cff;fontSize=9;fontColor=#FFFF66;" parent="1" vertex="1">
                    <mxGeometry x="126" y="13.75" width="64" height="64" as="geometry"/>
                </mxCell>
                <mxCell id="168" value="nome: X Burger&lt;br&gt;quantidade: 1" style="text;html=1;align=left;verticalAlign=middle;resizable=0;points=[];autosize=1;strokeColor=none;fillColor=none;fontSize=9;fontColor=#00FF00;" parent="1" vertex="1">
                    <mxGeometry x="180" y="112.5" width="90" height="40" as="geometry"/>
                </mxCell>
                <mxCell id="171" value="tayna&lt;br&gt;x burger: 1" style="shape=note;whiteSpace=wrap;html=1;backgroundOutline=1;darkOpacity=0.05;fontSize=9;fontColor=#00FF00;" parent="1" vertex="1">
                    <mxGeometry x="480" y="-320" width="80" height="80" as="geometry"/>
                </mxCell>
                <mxCell id="172" value="tiago&lt;br&gt;x salada: 2" style="shape=note;whiteSpace=wrap;html=1;backgroundOutline=1;darkOpacity=0.05;fontSize=9;fontColor=#00FF00;" parent="1" vertex="1">
                    <mxGeometry x="565" y="-320" width="80" height="80" as="geometry"/>
                </mxCell>
                <mxCell id="173" value="emilly&lt;br&gt;x tudo: 3" style="shape=note;whiteSpace=wrap;html=1;backgroundOutline=1;darkOpacity=0.05;fontSize=9;fontColor=#00FF00;" parent="1" vertex="1">
                    <mxGeometry x="655" y="-320" width="80" height="80" as="geometry"/>
                </mxCell>
                <mxCell id="174" value="FILA DE PEDIDOS" style="text;html=1;align=center;verticalAlign=middle;resizable=0;points=[];autosize=1;strokeColor=none;fillColor=none;fontSize=9;fontColor=#00FF00;" parent="1" vertex="1">
                    <mxGeometry x="470" y="-350" width="100" height="20" as="geometry"/>
                </mxCell>
                <mxCell id="175" value="tayna&lt;br&gt;x burger: 1" style="shape=note;whiteSpace=wrap;html=1;backgroundOutline=1;darkOpacity=0.05;fontSize=9;fontColor=#00FF00;" parent="1" vertex="1">
                    <mxGeometry x="480" y="-200" width="80" height="80" as="geometry"/>
                </mxCell>
                <mxCell id="176" value="tiago&lt;br&gt;x salada: 2" style="shape=note;whiteSpace=wrap;html=1;backgroundOutline=1;darkOpacity=0.05;fontSize=9;fontColor=#00FF00;" parent="1" vertex="1">
                    <mxGeometry x="565" y="-200" width="80" height="80" as="geometry"/>
                </mxCell>
                <mxCell id="177" value="emilly&lt;br&gt;x tudo: 3" style="shape=note;whiteSpace=wrap;html=1;backgroundOutline=1;darkOpacity=0.05;fontSize=9;fontColor=#00FF00;" parent="1" vertex="1">
                    <mxGeometry x="655" y="-200" width="80" height="80" as="geometry"/>
                </mxCell>
                <mxCell id="178" value="FILA DE ENTREGA DE PEDIDOS" style="text;html=1;align=left;verticalAlign=middle;resizable=0;points=[];autosize=1;strokeColor=none;fillColor=none;fontSize=9;fontColor=#00FF00;" parent="1" vertex="1">
                    <mxGeometry x="480" y="-230" width="160" height="20" as="geometry"/>
                </mxCell>
                <mxCell id="185" style="edgeStyle=none;html=1;exitX=1;exitY=0;exitDx=0;exitDy=0;entryX=0.75;entryY=0;entryDx=0;entryDy=0;fontSize=9;fontColor=#00FF00;" parent="1" source="46" target="46" edge="1">
                    <mxGeometry relative="1" as="geometry"/>
                </mxCell>
                <mxCell id="186" value="http://localhost:6000" style="aspect=fixed;perimeter=ellipsePerimeter;html=1;align=center;shadow=0;dashed=0;spacingTop=3;image;image=img/lib/active_directory/laptop_client.svg;" vertex="1" parent="1">
                    <mxGeometry x="120" y="225" width="45" height="50" as="geometry"/>
                </mxCell>
                <mxCell id="187" value="" style="verticalLabelPosition=bottom;shadow=0;dashed=0;align=center;html=1;verticalAlign=top;strokeWidth=1;shape=mxgraph.mockup.containers.userMale;strokeColor=#666666;strokeColor2=#008cff;fontSize=9;fontColor=#FFFF66;" vertex="1" parent="1">
                    <mxGeometry x="62" y="170" width="64" height="64" as="geometry"/>
                </mxCell>
            </root>
        </mxGraphModel>
    </diagram>
</mxfile>